<?xml version="1.0" standalone="no"?>
<svg xmlns:xlink="http://www.w3.org/1999/xlink" id="wave" style="transform:rotate(0deg); transition: 0.3s" viewBox="0 0 1440 360" version="1.1" xmlns="http://www.w3.org/2000/svg"><defs><linearGradient id="sw-gradient-0" x1="0" x2="0" y1="1" y2="0"><stop stop-color="rgba(62, 175.546, 243, 1)" offset="0%"/><stop stop-color="rgba(11, 255, 180.602, 1)" offset="100%"/></linearGradient></defs><path style="transform:translate(0, 0px); opacity:1" fill="url(#sw-gradient-0)" d="M0,180L48,156C96,132,192,84,288,84C384,84,480,132,576,156C672,180,768,180,864,162C960,144,1056,108,1152,90C1248,72,1344,72,1440,102C1536,132,1632,192,1728,198C1824,204,1920,156,2016,168C2112,180,2208,252,2304,246C2400,240,2496,156,2592,138C2688,120,2784,168,2880,210C2976,252,3072,288,3168,300C3264,312,3360,300,3456,264C3552,228,3648,168,3744,150C3840,132,3936,156,4032,168C4128,180,4224,180,4320,198C4416,216,4512,252,4608,222C4704,192,4800,96,4896,66C4992,36,5088,72,5184,126C5280,180,5376,252,5472,264C5568,276,5664,228,5760,204C5856,180,5952,180,6048,204C6144,228,6240,276,6336,246C6432,216,6528,108,6624,90C6720,72,6816,144,6864,180L6912,216L6912,360L6864,360C6816,360,6720,360,6624,360C6528,360,6432,360,6336,360C6240,360,6144,360,6048,360C5952,360,5856,360,5760,360C5664,360,5568,360,5472,360C5376,360,5280,360,5184,360C5088,360,4992,360,4896,360C4800,360,4704,360,4608,360C4512,360,4416,360,4320,360C4224,360,4128,360,4032,360C3936,360,3840,360,3744,360C3648,360,3552,360,3456,360C3360,360,3264,360,3168,360C3072,360,2976,360,2880,360C2784,360,2688,360,2592,360C2496,360,2400,360,2304,360C2208,360,2112,360,2016,360C1920,360,1824,360,1728,360C1632,360,1536,360,1440,360C1344,360,1248,360,1152,360C1056,360,960,360,864,360C768,360,672,360,576,360C480,360,384,360,288,360C192,360,96,360,48,360L0,360Z"/><defs><linearGradient id="sw-gradient-1" x1="0" x2="0" y1="1" y2="0"><stop stop-color="rgba(83.361, 62, 243, 1)" offset="0%"/><stop stop-color="rgba(238.192, 11, 255, 1)" offset="100%"/></linearGradient></defs><path style="transform:translate(0, 50px); opacity:0.9" fill="url(#sw-gradient-1)" d="M0,180L48,180C96,180,192,180,288,186C384,192,480,204,576,198C672,192,768,168,864,180C960,192,1056,240,1152,216C1248,192,1344,96,1440,96C1536,96,1632,192,1728,192C1824,192,1920,96,2016,48C2112,0,2208,0,2304,48C2400,96,2496,192,2592,234C2688,276,2784,264,2880,270C2976,276,3072,300,3168,306C3264,312,3360,300,3456,264C3552,228,3648,168,3744,132C3840,96,3936,84,4032,96C4128,108,4224,144,4320,138C4416,132,4512,84,4608,60C4704,36,4800,36,4896,48C4992,60,5088,84,5184,108C5280,132,5376,156,5472,150C5568,144,5664,108,5760,90C5856,72,5952,72,6048,108C6144,144,6240,216,6336,222C6432,228,6528,168,6624,150C6720,132,6816,156,6864,168L6912,180L6912,360L6864,360C6816,360,6720,360,6624,360C6528,360,6432,360,6336,360C6240,360,6144,360,6048,360C5952,360,5856,360,5760,360C5664,360,5568,360,5472,360C5376,360,5280,360,5184,360C5088,360,4992,360,4896,360C4800,360,4704,360,4608,360C4512,360,4416,360,4320,360C4224,360,4128,360,4032,360C3936,360,3840,360,3744,360C3648,360,3552,360,3456,360C3360,360,3264,360,3168,360C3072,360,2976,360,2880,360C2784,360,2688,360,2592,360C2496,360,2400,360,2304,360C2208,360,2112,360,2016,360C1920,360,1824,360,1728,360C1632,360,1536,360,1440,360C1344,360,1248,360,1152,360C1056,360,960,360,864,360C768,360,672,360,576,360C480,360,384,360,288,360C192,360,96,360,48,360L0,360Z"/></svg>