<?xml version="1.0" standalone="no"?>
<svg xmlns:xlink="http://www.w3.org/1999/xlink" id="wave" style="transform:rotate(0deg); transition: 0.3s" viewBox="0 0 1440 390" version="1.1" xmlns="http://www.w3.org/2000/svg"><defs><linearGradient id="sw-gradient-0" x1="0" x2="0" y1="1" y2="0"><stop stop-color="rgba(255, 34.629, 184.322, 0.99)" offset="0%"/><stop stop-color="rgba(255, 245.051, 54.787, 0.45)" offset="100%"/></linearGradient></defs><path style="transform:translate(0, 0px); opacity:1" fill="url(#sw-gradient-0)" d="M0,78L60,84.5C120,91,240,104,360,143C480,182,600,247,720,247C840,247,960,182,1080,143C1200,104,1320,91,1440,97.5C1560,104,1680,130,1800,136.5C1920,143,2040,130,2160,123.5C2280,117,2400,117,2520,123.5C2640,130,2760,143,2880,169C3000,195,3120,234,3240,240.5C3360,247,3480,221,3600,214.5C3720,208,3840,221,3960,240.5C4080,260,4200,286,4320,279.5C4440,273,4560,234,4680,208C4800,182,4920,169,5040,188.5C5160,208,5280,260,5400,273C5520,286,5640,260,5760,208C5880,156,6000,78,6120,65C6240,52,6360,104,6480,143C6600,182,6720,208,6840,195C6960,182,7080,130,7200,130C7320,130,7440,182,7560,195C7680,208,7800,182,7920,195C8040,208,8160,260,8280,279.5C8400,299,8520,286,8580,279.5L8640,273L8640,390L8580,390C8520,390,8400,390,8280,390C8160,390,8040,390,7920,390C7800,390,7680,390,7560,390C7440,390,7320,390,7200,390C7080,390,6960,390,6840,390C6720,390,6600,390,6480,390C6360,390,6240,390,6120,390C6000,390,5880,390,5760,390C5640,390,5520,390,5400,390C5280,390,5160,390,5040,390C4920,390,4800,390,4680,390C4560,390,4440,390,4320,390C4200,390,4080,390,3960,390C3840,390,3720,390,3600,390C3480,390,3360,390,3240,390C3120,390,3000,390,2880,390C2760,390,2640,390,2520,390C2400,390,2280,390,2160,390C2040,390,1920,390,1800,390C1680,390,1560,390,1440,390C1320,390,1200,390,1080,390C960,390,840,390,720,390C600,390,480,390,360,390C240,390,120,390,60,390L0,390Z"/><defs><linearGradient id="sw-gradient-1" x1="0" x2="0" y1="1" y2="0"><stop stop-color="rgba(214.17, 82.651, 61.736, 0.8)" offset="0%"/><stop stop-color="rgba(255, 209.81, 11, 0.5)" offset="100%"/></linearGradient></defs><path style="transform:translate(0, 50px); opacity:0.9" fill="url(#sw-gradient-1)" d="M0,195L60,169C120,143,240,91,360,65C480,39,600,39,720,78C840,117,960,195,1080,188.5C1200,182,1320,91,1440,97.5C1560,104,1680,208,1800,260C1920,312,2040,312,2160,260C2280,208,2400,104,2520,78C2640,52,2760,104,2880,130C3000,156,3120,156,3240,130C3360,104,3480,52,3600,84.5C3720,117,3840,234,3960,234C4080,234,4200,117,4320,65C4440,13,4560,26,4680,58.5C4800,91,4920,143,5040,162.5C5160,182,5280,169,5400,162.5C5520,156,5640,156,5760,188.5C5880,221,6000,286,6120,279.5C6240,273,6360,195,6480,169C6600,143,6720,169,6840,156C6960,143,7080,91,7200,71.5C7320,52,7440,65,7560,84.5C7680,104,7800,130,7920,156C8040,182,8160,208,8280,227.5C8400,247,8520,260,8580,266.5L8640,273L8640,390L8580,390C8520,390,8400,390,8280,390C8160,390,8040,390,7920,390C7800,390,7680,390,7560,390C7440,390,7320,390,7200,390C7080,390,6960,390,6840,390C6720,390,6600,390,6480,390C6360,390,6240,390,6120,390C6000,390,5880,390,5760,390C5640,390,5520,390,5400,390C5280,390,5160,390,5040,390C4920,390,4800,390,4680,390C4560,390,4440,390,4320,390C4200,390,4080,390,3960,390C3840,390,3720,390,3600,390C3480,390,3360,390,3240,390C3120,390,3000,390,2880,390C2760,390,2640,390,2520,390C2400,390,2280,390,2160,390C2040,390,1920,390,1800,390C1680,390,1560,390,1440,390C1320,390,1200,390,1080,390C960,390,840,390,720,390C600,390,480,390,360,390C240,390,120,390,60,390L0,390Z"/></svg>